PathFileType	4	(X/Y/Z)	/Users/niels/Desktop/University/Third Semester/Perception and Action/Exam/Gymnastics Motion Tracking/Code for Gym Tracking/Analyzed Data/Webcam_Backflip/id10_2_trajectory_Sports2D/id10_2_trajectory_Sports2D_px_person00.trc
DataRate	CameraRate	NumFrames	NumMarkers	Units	OrigDataRate	OrigDataStartFrame	OrigNumFrames
29.714285714285715	29.714285714285715	8	22	m	29.714285714285715	78	105
Frame#	Time	Hip			RHip			RKnee			RAnkle			RBigToe			RSmallToe			RHeel			LHip			LKnee			LAnkle			LBigToe			LSmallToe			LHeel			Neck			Head			Nose			RShoulder			RElbow			RWrist			LShoulder			LElbow			LWrist		
		X1	Y1	Z1	X2	Y2	Z2	X3	Y3	Z3	X4	Y4	Z4	X5	Y5	Z5	X6	Y6	Z6	X7	Y7	Z7	X8	Y8	Z8	X9	Y9	Z9	X10	Y10	Z10	X11	Y11	Z11	X12	Y12	Z12	X13	Y13	Z13	X14	Y14	Z14	X15	Y15	Z15	X16	Y16	Z16	X17	Y17	Z17	X18	Y18	Z18	X19	Y19	Z19	X20	Y20	Z20	X21	Y21	Z21	X22	Y22	Z22
78	2.625	0.8694046181715488	-0.5685589063683176	0.0	0.8642158867681782	-0.5701072645794678	0.0	0.8556954025784322	-0.8056022737372533	0.0	0.8086767163472134	-1.0351354183254557	0.0	0.899298284073638	-1.059728195751733	0.0	0.8824491417152599	-1.0704833062152421	0.0	0.7861173208568175	-1.0624974188537541	0.0	0.892007395117106	-0.5697431505657071	0.0	0.9462196214369805	-0.7868520256252015	0.0	0.9173553949348356	-1.0070362074402741	0.0	1.0126081435760184	-1.0375014489453631	0.0	0.9950480882684833	-1.0270662919662081	0.0	0.8970604897448016	-1.0326371403894745	0.0	0.8900953816994741	-0.2578152954510892	0.0	0.9116761684003517	-0.11157477499007137	0.0	0.954402878863056	-0.19008201584218476	0.0	0.8786613447998222	-0.2985316667783953	0.0	0.8965815436089323	-0.4761395962532225	0.0	0.9618723046707133	-0.6230626896642585	0.0	0.8662905944646749	-0.2941035114098203	0.0	0.8362220259991145	-0.4570330417556302	0.0	0.9082145481378787	-0.5819251406153908	0.0
79	2.658653846153846	0.8726218810990493	-0.5685694204286325	0.0	0.8672528649001691	-0.5693327941880546	0.0	0.8571942144776323	-0.8058975746306998	0.0	0.8084577157888801	-1.0353963947432367	0.0	0.8982240264119835	-1.0576119550339111	0.0	0.8811059077564168	-1.0698983799828576	0.0	0.7859878037855625	-1.0626783788177365	0.0	0.8949964041806159	-0.569514289686285	0.0	0.9523678136587257	-0.7860474544832602	0.0	0.9319505893025515	-1.006175513678567	0.0	1.0265915113368322	-1.0338378067864755	0.0	1.0104282015487611	-1.0241081494731483	0.0	0.9112985292915518	-1.0320867246401686	0.0	0.8968612507429922	-0.2591263395335762	0.0	0.9185997030604702	-0.11307302406308353	0.0	0.9617161650084286	-0.19205656019487388	0.0	0.8861733242635906	-0.2993955793448883	0.0	0.9075161902576905	-0.47722851308386377	0.0	0.9774098832409847	-0.6227678902387038	0.0	0.8725967955524214	-0.2953235697985388	0.0	0.8534548031654253	-0.4584854720422517	0.0	0.9169187075454486	-0.584824849731915	0.0
80	2.692307692307692	0.8765521882649645	-0.5690375875334995	0.0	0.8711301281687054	-0.5689915441758692	0.0	0.8584517637849156	-0.8069515334226477	0.0	0.8080612915588332	-1.0366132426548902	0.0	0.897805907215755	-1.0561771026751494	0.0	0.8801694515819851	-1.0699526429983177	0.0	0.7855730785312128	-1.0638188246285454	0.0	0.8978865093465707	-0.570019865437153	0.0	0.9571850184309815	-0.7869017788165474	0.0	0.9499662927389966	-1.0060336926522206	0.0	1.0446474581753853	-1.0299261290037298	0.0	1.0295725676538696	-1.0208707998608628	0.0	0.9295671904499496	-1.0325781234017466	0.0	0.904740226618592	-0.26063045536632695	0.0	0.9266914329641982	-0.11471582743934113	0.0	0.9703192789191943	-0.1942948545689076	0.0	0.8949957826472172	-0.3002609268539367	0.0	0.9198138177773039	-0.4773036431226202	0.0	0.9960884288945618	-0.6208665473034377	0.0	0.8801074125031167	-0.2965966861950826	0.0	0.8742734170149418	-0.45959045142389937	0.0	0.9306732054338339	-0.5868931363534099	0.0
81	2.7259615384615383	0.8813925599105954	-0.5700141565911241	0.0	0.8760056033958616	-0.5690936099398739	0.0	0.8597204668680708	-0.8084450147265403	0.0	0.8075725418870573	-1.0384083255327792	0.0	0.8979439082974034	-1.0558156025924457	0.0	0.8797710874802227	-1.0707661233426495	0.0	0.785090451831004	-1.065397878485616	0.0	0.9011207374997827	-0.5712020125084071	0.0	0.9610849605811611	-0.7893353251033585	0.0	0.9698223980139651	-1.0064725567160389	0.0	1.0648914929267754	-1.026489073525545	0.0	1.050681900629226	-1.0180346957093478	0.0	0.9503039680199453	-1.0339099206719988	0.0	0.9136946584741951	-0.26226008646687726	0.0	0.9361765621891257	-0.11654329208801528	0.0	0.9800131797924095	-0.1968332553409996	0.0	0.9049376496574287	-0.3010111928380917	0.0	0.9333880167051471	-0.47632117150055836	0.0	1.0175047037791036	-0.6175838739196585	0.0	0.8888617093087534	-0.2978740636476182	0.0	0.8980442992662395	-0.4602729071388109	0.0	0.951601800326643	-0.5875370286548738	0.0
82	2.7596153846153846	0.887251753850913	-0.5714204720624488	0.0	0.8819518370106495	-0.569587586892278	0.0	0.8613595524853261	-0.8100633603691669	0.0	0.807089478643905	-1.0403222718548033	0.0	0.8983873694756556	-1.0568114723475275	0.0	0.8796915336547529	-1.0724471763469299	0.0	0.7846588842213602	-1.066785497667	0.0	0.9051769499901173	-0.572871141259074	0.0	0.9647906398336605	-0.7929742684578835	0.0	0.9891534978362392	-1.0073803303185953	0.0	1.0847221769573672	-1.024275035424131	0.0	1.0711841619064746	-1.0163327531545636	0.0	0.9709440059525544	-1.0358029896835992	0.0	0.9235557128723441	-0.26398852842517023	0.0	0.947033505652519	-0.11857677416001541	0.0	0.9905201653087757	-0.19962950903501364	0.0	0.9156837689424935	-0.30162233999889665	0.0	0.9483173791335464	-0.4746547378330033	0.0	1.0408515498723216	-0.6132409303474322	0.0	0.8987067328711452	-0.2991507794600412	0.0	0.923295291620988	-0.46055092517130913	0.0	0.9808185744671417	-0.5864223750600442	0.0
83	2.793269230769231	0.8941991482338288	-0.5730544591287937	0.0	0.8890814797289699	-0.5704136168987023	0.0	0.8638704995034715	-0.8116006916132124	0.0	0.8067140706008196	-1.04202313582397	0.0	0.8990396764836683	-1.0591793722349225	0.0	0.879709796159254	-1.0749975923282618	0.0	0.7842146481111314	-1.067628632955209	0.0	0.9104435323226411	-0.5747631853641084	0.0	0.9689509672805096	-0.7970981156383474	0.0	1.0055120382321985	-1.0087069207754609	0.0	1.101607384620009	-1.0237798038425843	0.0	1.0885277388708618	-1.016248555301859	0.0	0.9886468148942577	-1.0380210641669032	0.0	0.93404107636678	-0.2658279863348112	0.0	0.958924138579739	-0.12081811171035119	0.0	1.0015193868440395	-0.2026296202996447	0.0	0.9268629849624499	-0.3022789874899346	0.0	0.964728595788445	-0.47296454634279655	0.0	1.064986380994114	-0.60812837589152	0.0	0.9093830681497863	-0.30048784118056987	0.0	0.9479811686299467	-0.4604582933010779	0.0	1.0161702188595645	-0.5835566070896087	0.0
84	2.8269230769230766	0.9022594311727625	-0.5746527376077093	0.0	0.8975288801554085	-0.5714800805821969	0.0	0.8678974926309778	-0.8129558998916082	0.0	0.8065582238747497	-1.0432973287186849	0.0	0.900020536840531	-1.0625834871257986	0.0	0.8797915076782555	-1.07814578811548	0.0	0.7836282721024047	-1.0678789977859953	0.0	0.9171455414248185	-0.5765580368059297	0.0	0.973874785987581	-0.8008154011036857	0.0	1.0173216755385561	-1.0103336696503369	0.0	1.1139978413082132	-1.0250241993111755	0.0	1.1011264044452171	-1.0177663251134423	0.0	1.001440171985298	-1.0403360015138623	0.0	0.9448399125511078	-0.26774380315683344	0.0	0.9713671115932597	-0.12326130358359629	0.0	1.0126703617857549	-0.20578664708022915	0.0	0.938149737982274	-0.3032414370323973	0.0	0.9824443227589436	-0.4717198186126401	0.0	1.0887086621351012	-0.6024459383789673	0.0	0.9205637625591413	-0.30193318765423915	0.0	0.970378795687092	-0.46000042507475714	0.0	1.0525633626603457	-0.5793129580843114	0.0
85	2.860576923076923	0.9113209645468145	-0.5759349974364131	0.0	0.9072462743854279	-0.5726040364001829	0.0	0.8741228617713614	-0.8140409761250753	0.0	0.8067833297490711	-1.0438394910082964	0.0	0.9014939492151778	-1.0664103988671199	0.0	0.8800441848825641	-1.081307101318404	0.0	0.7829405316042319	-1.0674477364580142	0.0	0.9251706635307058	-0.5779321155217637	0.0	0.9794841961715127	-0.803414734149626	0.0	1.0244306500506521	-1.0119667713629552	0.0	1.1217501214698422	-1.027525212112317	0.0	1.108801582408862	-1.020361574772334	0.0	1.0089873316020614	-1.0424394279553557	0.0	0.9557040691428929	-0.2695687747555703	0.0	0.9839265929902882	-0.12581479000484364	0.0	1.0236743741992178	-0.20899396076110957	0.0	0.9493744570188366	-0.3046020913265064	0.0	1.0007821133721764	-0.4708918903499032	0.0	1.1110733992692465	-0.5962707837171933	0.0	0.9318709663621252	-0.30338863357660883	0.0	0.9897067000054496	-0.4591998991353841	0.0	1.0851141907066675	-0.5744139234982691	0.0
